<svg width="16" height="14" viewBox="0 0 16 14" fill="none" xmlns="http://www.w3.org/2000/svg">
<path d="M0 6.56912C0 6.20094 0.2736 5.89666 0.628578 5.8485L0.727264 5.84186L15.2725 5.84186C15.6742 5.84186 15.9998 6.16747 15.9998 6.56912C15.9998 6.93731 15.7262 7.24159 15.3712 7.28975L15.2725 7.29639L0.727264 7.29639C0.325607 7.29639 0 6.97078 0 6.56912Z" fill="#000000"/>
<path d="M8.89381 1.24266C8.60918 0.959262 8.60819 0.498785 8.89159 0.21416C9.14923 -0.04459 9.55321 -0.0689316 9.83838 0.141705L9.9201 0.211946L15.7867 6.05333C16.0462 6.31174 16.0698 6.71718 15.8575 7.00233L15.7867 7.08401L9.92014 12.9264C9.63554 13.2098 9.17506 13.2088 8.89163 12.9242C8.63397 12.6655 8.61134 12.2614 8.82318 11.9771L8.89376 11.8957L14.2426 6.5684L8.89381 1.24266Z" fill="#000000"/>
</svg>