<svg width="185" height="53" viewBox="0 0 185 53" fill="none" xmlns="http://www.w3.org/2000/svg">
<path d="M0 4.81818C0 2.15717 2.16071 0 4.82609 0H180.174C182.839 0 185 2.15717 185 4.81818V48.1818C185 50.8428 182.839 53 180.174 53H4.82609C2.16072 53 0 50.8428 0 48.1818V4.81818Z" fill="black"/>
<path d="M11.4257 16.703H23.0083C24.9001 16.703 26.29 17.1367 27.178 18.0039C28.066 18.8519 28.51 20.1528 28.51 21.9067C28.51 23.063 28.2591 24.0074 27.7572 24.7398C27.2553 25.4528 26.6375 25.9539 25.904 26.243C27.4676 26.667 28.5293 27.7078 29.0892 29.3652C29.2822 29.9627 29.3787 30.6565 29.3787 31.4467C29.3787 33.3354 28.9347 34.723 28.0467 35.6096C27.1587 36.4961 25.7688 36.9394 23.877 36.9394H11.4257V16.703ZM24.1666 30.5794C24.1666 29.423 23.5874 28.8448 22.4292 28.8448H16.6379V32.8921H22.4292C23.5874 32.8921 24.1666 32.3139 24.1666 31.1576V30.5794ZM23.2979 22.4848C23.2979 21.3285 22.7187 20.7503 21.5605 20.7503H16.6379V24.7976H21.5605C22.7187 24.7976 23.2979 24.2194 23.2979 23.063V22.4848Z" fill="white"/>
<path d="M31.9837 16.703H44.1454C46.1724 16.703 47.6395 17.1656 48.5468 18.0907C49.4734 18.9965 49.9367 20.4612 49.9367 22.4848V25.3758C49.9367 27.3994 49.4734 28.8738 48.5468 29.7988C47.6395 30.7047 46.1724 31.1576 44.1454 31.1576H37.1959V36.9394H31.9837V16.703ZM44.7246 22.4848C44.7246 21.3285 44.1454 20.7503 42.9872 20.7503H37.1959V27.1103H42.9872C44.1454 27.1103 44.7246 26.5321 44.7246 25.3758V22.4848Z" fill="white"/>
<path d="M68.6126 36.9394H52.5417V16.703H68.6126V20.7503H57.7539V24.653H66.296V28.7003H57.7539V32.8921H68.6126V36.9394Z" fill="white"/>
<path d="M85.6901 16.4139C86.1727 16.4139 87.0414 16.5103 88.2962 16.703V20.6058H87.138C86.8484 20.6058 86.5878 20.7021 86.3561 20.8948C86.1245 21.0683 85.9507 21.261 85.8349 21.473L83.084 26.6767L88.7306 36.9394H83.2288L78.7406 28.7003H76.1345V36.9394H70.9223V16.703H76.1345V24.653H78.7406L81.6362 19.1603C82.0609 18.3508 82.5821 17.6956 83.1999 17.1945C83.8369 16.6741 84.667 16.4139 85.6901 16.4139Z" fill="white"/>
<path d="M96.5432 32.7476C96.4466 34.1352 96.0026 35.2338 95.2112 36.0432C94.4197 36.8334 93.4448 37.2285 92.2866 37.2285C91.1283 37.2285 90.0376 37.1321 89.0145 36.9394V33.0367H90.3175C90.6843 33.0367 90.9835 32.9114 91.2152 32.6609C91.4661 32.4103 91.6012 32.1019 91.6206 31.7358L92.4893 16.703H108.56V36.9394H103.348V20.7503H97.2671L96.5432 32.7476Z" fill="white"/>
<path d="M115.658 36.9394H110.011L117.685 16.703H123.476L131.15 36.9394H125.503L124.2 33.3258H116.961L115.658 36.9394ZM118.264 29.5676H122.897L120.58 22.7739L118.264 29.5676Z" fill="white"/>
<path d="M149.97 25.6648L145.916 32.8921H141.862L137.808 25.6648V36.9394H132.596V16.703H138.098L143.889 27.3994L149.681 16.703H155.182V36.9394H149.97V25.6648Z" fill="white"/>
<path d="M174.739 36.9394H158.668V16.703H174.739V20.7503H163.881V24.653H172.423V28.7003H163.881V32.8921H174.739V36.9394Z" fill="white"/>
</svg>
